<?xml version="1.0" encoding="utf-8"?>
<!-- Generator: Adobe Illustrator 15.0.2, SVG Export Plug-In . SVG Version: 6.00 Build 0)  -->
<!DOCTYPE svg PUBLIC "-//W3C//DTD SVG 1.1//EN" "http://www.w3.org/Graphics/SVG/1.1/DTD/svg11.dtd">
<svg version="1.1" id="Layer_1" xmlns="http://www.w3.org/2000/svg" xmlns:xlink="http://www.w3.org/1999/xlink" x="0px" y="0px"
	 width="7px" height="7px" viewBox="0 0 7 7" enable-background="new 0 0 7 7" xml:space="preserve">
<g>
	<polygon fill="#037756" points="5,6 1,6 1,2 2,2 2,1 0,1 0,2 0,6 0,7 1,7 5,7 6,7 6,6 6,4 5,4 	"/>
	<polygon fill="#037756" points="4,0 4,1 5,1 5,2 6,2 6,3 7,3 7,2 7,1 7,0 	"/>
	<rect x="3" y="3" fill="#037756" width="1" height="1"/>
	<rect x="4" y="2" fill="#037756" width="1" height="1"/>
</g>
</svg>
