<?xml version="1.0" encoding="utf-8"?>
<!-- Generator: Adobe Illustrator 15.0.2, SVG Export Plug-In . SVG Version: 6.00 Build 0)  -->
<!DOCTYPE svg PUBLIC "-//W3C//DTD SVG 1.1//EN" "http://www.w3.org/Graphics/SVG/1.1/DTD/svg11.dtd">
<svg version="1.1" id="Layer_1" xmlns="http://www.w3.org/2000/svg" xmlns:xlink="http://www.w3.org/1999/xlink" x="0px" y="0px"
	 width="32px" height="11px" viewBox="0 0 32 11" enable-background="new 0 0 32 11" xml:space="preserve">
<path fill="#F78D24" d="M32,10c0,0.553-0.447,1-1,1H1c-0.553,0-1-0.447-1-1V1c0-0.552,0.447-1,1-1h30c0.553,0,1,0.448,1,1V10z"/>
<g>
	<path fill="#FFFFFF" d="M3.725,2.879h1.104l1.999,3.513V2.879H7.81v5.038H6.757L4.706,4.342v3.575H3.725V2.879z"/>
	<path fill="#FFFFFF" d="M8.971,2.879h1.07v3.094c0,0.346,0.04,0.599,0.122,0.758c0.127,0.282,0.404,0.423,0.831,0.423
		c0.425,0,0.7-0.141,0.827-0.423c0.082-0.159,0.123-0.412,0.123-0.758V2.879h1.069v3.097c0,0.536-0.083,0.952-0.249,1.251
		c-0.309,0.547-0.899,0.82-1.771,0.82S9.531,7.773,9.22,7.227C9.054,6.928,8.971,6.512,8.971,5.976V2.879z"/>
	<path fill="#FFFFFF" d="M17.9,3.771h-2.666v1.07h2.447v0.875h-2.447v1.296h2.789v0.905h-3.817V2.879H17.9V3.771z"/>
	<path fill="#FFFFFF" d="M21.97,2.879h1.094l-1.718,5.038h-0.995l-1.703-5.038h1.124l1.094,3.824L21.97,2.879z"/>
	<path fill="#FFFFFF" d="M27.539,7.469c-0.38,0.393-0.931,0.588-1.65,0.588s-1.271-0.195-1.65-0.588
		c-0.511-0.48-0.766-1.173-0.766-2.078c0-0.923,0.255-1.616,0.766-2.078c0.38-0.392,0.931-0.588,1.65-0.588s1.271,0.196,1.65,0.588
		c0.509,0.462,0.763,1.155,0.763,2.078C28.302,6.296,28.048,6.988,27.539,7.469z M26.882,6.703c0.245-0.307,0.367-0.745,0.367-1.312
		c0-0.565-0.122-1.002-0.367-1.311c-0.245-0.309-0.576-0.463-0.993-0.463s-0.75,0.154-0.998,0.461s-0.373,0.745-0.373,1.312
		s0.125,1.005,0.373,1.312c0.248,0.309,0.581,0.462,0.998,0.462S26.637,7.012,26.882,6.703z"/>
</g>
</svg>
