<?xml version="1.0" encoding="utf-8"?>
<!-- Generator: Adobe Illustrator 15.0.2, SVG Export Plug-In . SVG Version: 6.00 Build 0)  -->
<!DOCTYPE svg PUBLIC "-//W3C//DTD SVG 1.1//EN" "http://www.w3.org/Graphics/SVG/1.1/DTD/svg11.dtd">
<svg version="1.1" id="Layer_1" xmlns="http://www.w3.org/2000/svg" xmlns:xlink="http://www.w3.org/1999/xlink" x="0px" y="0px"
	 width="175px" height="27px" viewBox="0 0 175 27" enable-background="new 0 0 175 27" xml:space="preserve">
<g>
	<path fill-rule="evenodd" clip-rule="evenodd" fill="#287D5B" d="M20.976,0.242v14.694c0,7.671-3.999,11.935-10.436,11.935
		C4.083,26.87,0,22.606,0,14.936V0.242h4.854v14.629c0,4.839,1.958,7.048,5.687,7.048c3.708,0,5.562-2.209,5.562-7.048V0.242H20.976
		z"/>
	<path fill-rule="evenodd" clip-rule="evenodd" fill="#287D5B" d="M36.558,17.589c-0.042,0-1.374,2.474-1.792,3.138l-3.937,6.03
		h-5.833L33.6,13.171L25.497,0.242h5.853l3.792,6.098c0.354,0.597,1.374,2.563,1.416,2.563H36.6c0.021,0,1-1.966,1.354-2.563
		l3.791-6.098h5.915l-8.165,12.929l8.625,13.586h-5.833l-3.937-6.03c-0.417-0.664-1.729-3.138-1.75-3.138H36.558z"/>
	<path fill-rule="evenodd" clip-rule="evenodd" fill="#287D5B" d="M61.409,13.081c2.875,0,4.542-1.503,4.542-3.979
		c0-2.494-1.729-3.931-4.542-3.931h-3.52v7.911H61.409z M61.514,0.242c5.894,0,9.479,3.336,9.479,8.86
		c0,5.568-3.585,8.909-9.479,8.909h-3.625v8.746h-4.895V0.242H61.514z"/>
	<polygon fill-rule="evenodd" clip-rule="evenodd" fill="#287D5B" points="92.99,21.831 92.99,26.757 75.992,26.757 75.992,0.242 
		80.866,0.242 80.866,21.831 	"/>
	<path fill-rule="evenodd" clip-rule="evenodd" fill="#287D5B" d="M108.8,21.765c4.521,0,7.665-3.379,7.665-8.265
		c0-4.926-3.144-8.265-7.665-8.265c-4.479,0-7.624,3.339-7.624,8.265C101.176,18.386,104.321,21.765,108.8,21.765z M108.8,0
		c7.04,0,12.748,5.811,12.748,13.5c0,7.69-5.708,13.5-12.748,13.5c-7.042,0-12.707-5.81-12.707-13.5C96.093,5.811,101.779,0,108.8,0
		z"/>
	<path fill-rule="evenodd" clip-rule="evenodd" fill="#287D5B" d="M131.901,13.014h4.374c2.729,0,4-1.9,4-3.912
		c0-2.076-1.312-3.931-4-3.931h-4.374V13.014z M140.836,26.757l-4.914-9.059h-0.271h-3.75v9.059h-4.894V0.242h8.644
		c6.06,0,9.705,3.513,9.705,8.86c0,3.646-1.665,6.298-4.663,7.626l5.644,10.029H140.836z"/>
	<path fill-rule="evenodd" clip-rule="evenodd" fill="#287D5B" d="M166.168,17.013l-2.438-6.694
		c-0.521-1.481-1.166-3.668-1.189-3.668h-0.039c-0.041,0-0.668,2.188-1.188,3.668l-2.438,6.694H166.168z M167.876,21.679H157.17
		l-1.833,5.078h-5.294l10.168-26.515h4.624L175,26.757h-5.289L167.876,21.679z"/>
</g>
</svg>
