<?xml version="1.0" encoding="utf-8"?>
<!-- Generator: Adobe Illustrator 15.0.2, SVG Export Plug-In . SVG Version: 6.00 Build 0)  -->
<!DOCTYPE svg PUBLIC "-//W3C//DTD SVG 1.1//EN" "http://www.w3.org/Graphics/SVG/1.1/DTD/svg11.dtd">
<svg version="1.1" id="Layer_1" xmlns="http://www.w3.org/2000/svg" xmlns:xlink="http://www.w3.org/1999/xlink" x="0px" y="0px"
	 width="134px" height="29px" viewBox="0 0 134 29" enable-background="new 0 0 134 29" xml:space="preserve">
<g>
	<path fill="#297D5B" d="M15.973,1.047v10.825c0,5.494-3.12,8.479-7.986,8.479C3.095,20.354,0,17.366,0,11.872V1.047h3.676v10.771
		c0,3.467,1.481,5.065,4.311,5.065c2.803,0,4.283-1.6,4.283-5.065V1.047H15.973z"/>
	<path fill="#297D5B" d="M28.063,13.525c-0.027,0-1.042,1.733-1.363,2.213l-2.993,4.242h-4.436l6.547-9.577l-6.173-9.358h4.463
		l2.885,4.558c0.267,0.426,1.042,1.814,1.069,1.814h0.027c0.027,0,0.775-1.388,1.042-1.814l2.887-4.558h4.489l-6.199,9.358
		l6.546,9.577h-4.436l-2.993-4.242c-0.32-0.479-1.309-2.213-1.336-2.213H28.063z"/>
	<path fill="#297D5B" d="M47.055,1.047c4.489,0,7.215,2.611,7.215,6.505c0,3.922-2.726,6.266-7.215,6.266h-2.966v6.162h-3.714V1.047
		H47.055z M46.976,10.352c2.191,0,3.447-1.067,3.447-2.8c0-1.76-1.31-2.774-3.447-2.774H44.09v5.574H46.976z"/>
	<path fill="#297D5B" d="M71.139,16.514v3.467h-12.96V1.031h3.714v15.481h9.247V16.514z"/>
	<path fill="#297D5B" d="M83.085,0.938c5.37,0,9.726,4.081,9.726,9.709c0,5.628-4.354,9.707-9.726,9.707s-9.701-4.078-9.701-9.707
		C73.384,5.018,77.714,0.938,83.085,0.938z M83.085,16.699c3.444,0,5.853-2.479,5.853-6.053c0-3.601-2.406-6.055-5.853-6.055
		c-3.421,0-5.826,2.454-5.826,6.055C77.259,14.221,79.664,16.699,83.085,16.699z"/>
	<path fill="#297D5B" d="M107.758,19.98l-3.714-6.375c-0.08,0-0.134,0-0.214,0h-2.832v6.375h-3.715V1.111h6.547
		c4.598,0,7.348,2.68,7.348,6.44c0,2.561-1.256,4.427-3.525,5.359l4.275,7.068h-4.17V19.98z M100.998,10.299h3.312
		c2.059,0,3.02-1.333,3.02-2.747c0-1.467-0.987-2.774-3.02-2.774h-3.312V10.299z"/>
	<path fill="#297D5B" d="M128.23,16.406h-8.097l-1.391,3.574h-4.009l7.697-18.87h3.498l7.696,18.87h-4.008L128.23,16.406z
		 M126.947,13.126l-1.844-4.721c-0.4-1.041-0.883-2.587-0.908-2.587h-0.025c-0.027,0-0.508,1.547-0.908,2.587l-1.846,4.721H126.947z
		"/>
</g>
<rect y="26" fill="#B3D335" width="38" height="3"/>
</svg>
